<svg width="25" height="26" viewBox="0 0 25 26" fill="none" xmlns="http://www.w3.org/2000/svg">
<path d="M7.54464 0.898828L7.14286 1.625H1.78571C0.797991 1.625 0 2.35117 0 3.25C0 4.14883 0.797991 4.875 1.78571 4.875H23.2143C24.202 4.875 25 4.14883 25 3.25C25 2.35117 24.202 1.625 23.2143 1.625H17.8571L17.4554 0.898828C17.154 0.345313 16.5346 0 15.8594 0H9.14062C8.4654 0 7.84598 0.345313 7.54464 0.898828ZM23.2143 6.5H1.78571L2.96875 23.7148C3.05804 24.9996 4.22991 26 5.64174 26H19.3583C20.7701 26 21.942 24.9996 22.0312 23.7148L23.2143 6.5Z" fill="#071E22"/>
</svg>
